nColumns=28
nRows=53
DataType=double
version=3
OpenSimVersion=4.1
endheader
time	ground_force_1_vx	ground_force_1_vy	ground_force_1_vz	ground_force_1_px	ground_force_1_py	ground_force_1_pz	ground_force_1_mx	ground_force_1_my	ground_force_1_mz	ground_force_2_vx	ground_force_2_vy	ground_force_2_vz	ground_force_2_px	ground_force_2_py	ground_force_2_pz	ground_force_2_mx	ground_force_2_my	ground_force_2_mz	ground_force_3_vx	ground_force_3_vy	ground_force_3_vz	ground_force_3_px	ground_force_3_py	ground_force_3_pz	ground_force_3_mx	ground_force_3_my	ground_force_3_mz
6	7.88356	247.599	-34.9112	-0.274278	0.006	-0.339118	0	0.282156	0	-3.65347	297.102	45.056	-0.269896	0.006	-0.84713	0	1.52813	0	0	0	0	0	0	0	0	0	0
6.01	6.89705	247.734	-34.6918	-0.271604	0.006	-0.338524	0	0.32872	0	-4.90657	290.534	43.7775	-0.266109	0.006	-0.847589	0	1.43606	0	0	0	0	0	0	0	0	0	0
6.02	5.88904	248.494	-34.5192	-0.268798	0.006	-0.337939	0	0.371945	0	-6.04383	284.092	42.3975	-0.262219	0.006	-0.848038	0	1.3545	0	0	0	0	0	0	0	0	0	0
6.03	4.86894	249.827	-34.4048	-0.26589	0.006	-0.337359	0	0.407592	0	-7.0611	277.791	40.9189	-0.25825	0.006	-0.848473	0	1.28712	0	0	0	0	0	0	0	0	0	0
6.04	3.84851	251.692	-34.3608	-0.262921	0.006	-0.336781	0	0.432127	0	-7.96046	271.683	39.358	-0.254223	0.006	-0.848894	0	1.23727	0	0	0	0	0	0	0	0	0	0
6.05	2.8377	254.069	-34.4029	-0.259937	0.006	-0.336201	0	0.442986	0	-8.75298	265.866	37.7461	-0.250153	0.006	-0.849302	0	1.20774	0	0	0	0	0	0	0	0	0	0
6.06	1.84323	256.959	-34.5493	-0.256976	0.006	-0.335617	0	0.438381	0	-9.45616	260.473	36.1271	-0.246058	0.006	-0.849702	0	1.20062	0	0	0	0	0	0	0	0	0	0
6.07	0.87013	260.371	-34.8157	-0.254076	0.006	-0.335026	0	0.417306	0	-10.0879	255.651	34.554	-0.241959	0.006	-0.850103	0	1.21731	0	0	0	0	0	0	0	0	0	0
6.08	-0.0787796	264.312	-35.2128	-0.251263	0.006	-0.334427	0	0.379592	0	-10.6639	251.56	33.0863	-0.237883	0.006	-0.850514	0	1.25845	0	0	0	0	0	0	0	0	0	0
6.09	-1.00345	268.79	-35.7455	-0.248556	0.006	-0.333822	0	0.325775	0	-11.1966	248.372	31.7871	-0.23386	0.006	-0.850946	0	1.32376	0	0	0	0	0	0	0	0	0	0
6.1	-1.90446	273.818	-36.4142	-0.245967	0.006	-0.333215	0	0.256923	0	-11.6932	246.265	30.7197	-0.229927	0.006	-0.85141	0	1.41196	0	0	0	0	0	0	0	0	0	0
6.11	-2.78239	279.414	-37.2142	-0.243505	0.006	-0.332612	0	0.174506	0	-12.1581	245.413	29.9431	-0.22613	0.006	-0.851916	0	1.52073	0	0	0	0	0	0	0	0	0	0
6.12	-3.63896	285.6	-38.1352	-0.241178	0.006	-0.332023	0	0.080318	0	-12.596	245.973	29.5057	-0.222517	0.006	-0.852466	0	1.64724	0	0	0	0	0	0	0	0	0	0
6.13	-4.47438	292.402	-39.1614	-0.238996	0.006	-0.331459	0	-0.023724	0	-13.0099	248.06	29.4394	-0.219142	0.006	-0.853055	0	1.78847	0	0	0	0	0	0	0	0	0	0
6.14	-5.28343	299.843	-40.2747	-0.236966	0.006	-0.33093	0	-0.135891	0	-13.4006	251.734	29.7542	-0.21606	0.006	-0.853669	0	1.94142	0	0	0	0	0	0	0	0	0	0
6.15	-6.05791	307.939	-41.4585	-0.235098	0.006	-0.330444	0	-0.254698	0	-13.7675	257	30.4368	-0.213315	0.006	-0.854286	0	2.10326	0	0	0	0	0	0	0	0	0	0
6.16	-6.79251	316.688	-42.7014	-0.233395	0.006	-0.330007	0	-0.378659	0	-14.1136	263.818	31.4536	-0.210938	0.006	-0.854881	0	2.27142	0	0	0	0	0	0	0	0	0	0
6.17	-7.48891	326.062	-43.9969	-0.231854	0.006	-0.32962	0	-0.506104	0	-14.4501	272.105	32.7578	-0.208934	0.006	-0.855429	0	2.44361	0	0	0	0	0	0	0	0	0	0
6.18	-8.15798	336	-45.3428	-0.230466	0.006	-0.329278	0	-0.6352	0	-14.7954	281.727	34.2947	-0.207286	0.006	-0.855911	0	2.61743	0	0	0	0	0	0	0	0	0	0
6.19	-8.82015	346.4	-46.7389	-0.229214	0.006	-0.328975	0	-0.764039	0	-15.1723	292.495	36.0049	-0.205954	0.006	-0.856314	0	2.79018	0	0	0	0	0	0	0	0	0	0
6.2	-9.50502	357.121	-48.1854	-0.228074	0.006	-0.328704	0	-0.890718	0	-15.6044	304.154	37.8299	-0.204882	0.006	-0.856633	0	2.95858	0	0	0	0	0	0	0	0	0	0
6.21	-10.2499	367.996	-49.682	-0.227021	0.006	-0.328455	0	-1.01337	0	-16.1149	316.383	39.7156	-0.204006	0.006	-0.856871	0	3.11889	0	0	0	0	0	0	0	0	0	0
6.22	-11.0951	378.842	-51.2251	-0.226027	0.006	-0.328219	0	-1.1303	0	-16.7251	328.81	41.613	-0.203259	0.006	-0.857035	0	3.26709	0	0	0	0	0	0	0	0	0	0
6.23	-12.0771	389.462	-52.8056	-0.225069	0.006	-0.327991	0	-1.24003	0	-17.4529	341.037	43.4786	-0.202578	0.006	-0.857135	0	3.39916	0	0	0	0	0	0	0	0	0	0
6.24	-13.2255	399.661	-54.4061	-0.224129	0.006	-0.327767	0	-1.34162	0	-18.3124	352.676	45.2742	-0.201908	0.006	-0.857182	0	3.51125	0	0	0	0	0	0	0	0	0	0
6.25	-14.5605	409.251	-55.9989	-0.223196	0.006	-0.327549	0	-1.43467	0	-19.314	363.382	46.967	-0.201205	0.006	-0.857185	0	3.59991	0	0	0	0	0	0	0	0	0	0
6.26	-16.0916	418.054	-57.5459	-0.222267	0.006	-0.327338	0	-1.51934	0	-20.4634	372.878	48.5302	-0.200438	0.006	-0.857153	0	3.66223	0	0	0	0	0	0	0	0	0	0
6.27	-17.8154	425.912	-58.9999	-0.221344	0.006	-0.327142	0	-1.59604	0	-21.7603	380.97	49.9437	-0.199583	0.006	-0.857093	0	3.69602	0	0	0	0	0	0	0	0	0	0
6.28	-19.7163	432.692	-60.3104	-0.220433	0.006	-0.326968	0	-1.66511	0	-23.1979	387.556	51.1945	-0.198629	0.006	-0.857012	0	3.70015	0	0	0	0	0	0	0	0	0	0
6.29	-21.7683	438.301	-61.4299	-0.219543	0.006	-0.326823	0	-1.72647	0	-24.7621	392.627	52.2757	-0.197575	0.006	-0.856915	0	3.67458	0	0	0	0	0	0	0	0	0	0
6.3	-23.9365	442.691	-62.319	-0.218686	0.006	-0.326716	0	-1.77958	0	-26.431	396.259	53.1863	-0.196429	0.006	-0.856806	0	3.62031	0	0	0	0	0	0	0	0	0	0
6.31	-26.1779	445.859	-62.9485	-0.217875	0.006	-0.326652	0	-1.82351	0	-28.1767	398.607	53.9331	-0.195209	0.006	-0.856687	0	3.53923	0	0	0	0	0	0	0	0	0	0
6.32	-28.4419	447.842	-63.3	-0.21713	0.006	-0.326639	0	-1.85722	0	-29.9676	399.889	54.5317	-0.19394	0.006	-0.856561	0	3.43382	0	0	0	0	0	0	0	0	0	0
6.33	-30.6703	448.713	-63.3678	-0.216479	0.006	-0.326682	0	-1.87973	0	-31.7694	400.348	55.0054	-0.192651	0.006	-0.856431	0	3.30699	0	0	0	0	0	0	0	0	0	0
6.34	-32.7985	448.571	-63.1616	-0.215956	0.006	-0.326789	0	-1.89006	0	-33.5435	400.212	55.3804	-0.191377	0.006	-0.856302	0	3.16183	0	0	0	0	0	0	0	0	0	0
6.35	-34.7605	447.539	-62.7053	-0.215601	0.006	-0.326962	0	-1.88732	0	-35.2443	399.658	55.6791	-0.190157	0.006	-0.856177	0	3.00152	0	0	0	0	0	0	0	0	0	0
6.36	-36.4908	445.746	-62.0334	-0.215456	0.006	-0.327203	0	-1.87061	0	-36.8206	398.792	55.9172	-0.189031	0.006	-0.856058	0	2.82932	0	0	0	0	0	0	0	0	0	0
6.37	-37.9284	443.308	-61.1886	-0.215566	0.006	-0.327514	0	-1.83888	0	-38.2204	397.649	56.1015	-0.188038	0.006	-0.855947	0	2.64844	0	0	0	0	0	0	0	0	0	0
6.38	-39.0233	440.312	-60.2177	-0.215968	0.006	-0.327891	0	-1.79084	0	-39.3948	396.195	56.2293	-0.187214	0.006	-0.855845	0	2.46195	0	0	0	0	0	0	0	0	0	0
6.39	-39.7402	436.803	-59.1654	-0.21669	0.006	-0.328331	0	-1.72513	0	-40.3015	394.333	56.2885	-0.186592	0.006	-0.85575	0	2.27274	0	0	0	0	0	0	0	0	0	0
6.4	-40.0593	432.785	-58.0674	-0.217753	0.006	-0.328829	0	-1.64079	0	-40.9048	391.923	56.256	-0.1862	0.006	-0.855655	0	2.08358	0	0	0	0	0	0	0	0	0	0
6.41	-39.9749	428.229	-56.9473	-0.219163	0.006	-0.329383	0	-1.5376	0	-41.1771	388.812	56.1005	-0.186064	0.006	-0.855553	0	1.89724	0	0	0	0	0	0	0	0	0	0
6.42	-39.4916	423.086	-55.8163	-0.22092	0.006	-0.329988	0	-1.4164	0	-41.101	384.854	55.7861	-0.186202	0.006	-0.855436	0	1.71641	0	0	0	0	0	0	0	0	0	0
6.43	-38.6211	417.302	-54.673	-0.223017	0.006	-0.330643	0	-1.27919	0	-40.6712	379.933	55.2765	-0.186631	0.006	-0.855292	0	1.54377	0	0	0	0	0	0	0	0	0	0
6.44	-37.3806	410.831	-53.5051	-0.22544	0.006	-0.331346	0	-1.1291	0	-39.8934	373.97	54.5378	-0.187358	0.006	-0.855114	0	1.38163	0	0	0	0	0	0	0	0	0	0
6.45	-35.7942	403.646	-52.2919	-0.228169	0.006	-0.332096	0	-0.97009	0	-38.7806	366.919	53.5418	-0.188392	0.006	-0.854891	0	1.23166	0	0	0	0	0	0	0	0	0	0
6.46	-33.8933	395.754	-51.0088	-0.231183	0.006	-0.332896	0	-0.806641	0	-37.3525	358.767	52.2691	-0.189738	0.006	-0.854612	0	1.09503	0	0	0	0	0	0	0	0	0	0
6.47	-31.714	387.192	-49.6328	-0.234458	0.006	-0.333745	0	-0.6433	0	-35.6319	349.539	50.7099	-0.191402	0.006	-0.854267	0	0.972393	0	0	0	0	0	0	0	0	0	0
6.48	-29.2943	378.03	-48.1475	-0.237973	0.006	-0.334644	0	-0.484383	0	-33.641	339.298	48.8648	-0.193401	0.006	-0.853841	0	0.863882	0	0	0	0	0	0	0	0	0	0
6.49	-26.6714	368.37	-46.5462	-0.241706	0.006	-0.335592	0	-0.333845	0	-31.3977	328.155	46.7451	-0.195757	0.006	-0.853321	0	0.769118	0	0	0	0	0	0	0	0	0	0
6.5	-23.8803	358.345	-44.8332	-0.245634	0.006	-0.336584	0	-0.195201	0	-28.9136	316.273	44.3739	-0.198508	0.006	-0.852693	0	0.687325	0	0	0	0	0	0	0	0	0	0
6.51	-20.9556	348.106	-43.0233	-0.249729	0.006	-0.337616	0	-0.071411	0	-26.1955	303.876	41.7874	-0.201704	0.006	-0.851942	0	0.617219	0	0	0	0	0	0	0	0	0	0
6.52	-17.9367	337.822	-41.1413	-0.253957	0.006	-0.338678	0	0.035221	0	-23.2496	291.245	39.0357	-0.2054	0.006	-0.851055	0	0.556902	0	0	0	0	0	0	0	0	0	0
